<?xml version="1.0" encoding="utf-8"?>
<!-- Generator: Adobe Illustrator 17.1.0, SVG Export Plug-In . SVG Version: 6.00 Build 0)  -->
<!DOCTYPE svg PUBLIC "-//W3C//DTD SVG 1.1//EN" "http://www.w3.org/Graphics/SVG/1.1/DTD/svg11.dtd">
<svg version="1.1" xmlns="http://www.w3.org/2000/svg" xmlns:xlink="http://www.w3.org/1999/xlink" x="0px" y="0px"
	 viewBox="0 0 443.7 396.8" enable-background="new 0 0 443.7 396.8" xml:space="preserve">
<g id="Layer_1">
	<ellipse fill="#FFFFFF" cx="293.6" cy="268.7" rx="96.5" ry="85"/>
</g>
<g id="Layer_2">
	<ellipse fill="#FFFFFF" cx="105.4" cy="193.1" rx="96.5" ry="85"/>
</g>
<g id="Layer_3">
	<ellipse fill="#FFFFFF" cx="271.1" cy="88" rx="96.5" ry="85"/>
</g>
<g id="Layer_4">
	<path fill="#FFFFFF" d="M78,330.4c-2.5,16.1-20,26.6-39,23.6c-19-3-32.3-18.5-29.7-34.6s20-26.6,39-23.6
		C67.3,298.9,80.6,314.4,78,330.4z"/>
</g>
<g id="Layer_5">
	<ellipse fill="#FFFFFF" cx="38.8" cy="57.5" rx="34.8" ry="54.5"/>
</g>
<g id="Layer_6">
	<path fill="#FFFFFF" d="M176.4,354.7c-12.3,27.5-36.5,43.4-54,35.5c-17.5-7.9-21.8-36.5-9.5-64s36.5-43.4,54-35.5
		C184.4,298.6,188.7,327.2,176.4,354.7z"/>
</g>
<g id="Layer_7">
	<path fill="#FFFFFF" d="M436,152.6c7.8,29.1-1,56.7-19.5,61.7c-18.6,5-39.9-14.6-47.7-43.6c-7.8-29.1,1-56.7,19.5-61.7
		C406.9,104,428.2,123.5,436,152.6z"/>
</g>
<g id="Layer_8">
	<path fill="#FFFFFF" d="M436.7,368.7c-2.5,16.1-20,26.6-39,23.6s-32.3-18.5-29.7-34.6c2.5-16.1,20-26.6,39-23.6
		S439.3,352.7,436.7,368.7z"/>
</g>
<g id="Layer_9">
	<path fill="#FFFFFF" d="M168.2,49.5c-2.5,16.1-20,26.6-39,23.6c-19-3-32.3-18.5-29.7-34.6s20-26.6,39-23.6S170.8,33.4,168.2,49.5z"
		/>
</g>
<g id="Layer_10">
	<path fill="#FFFFFF" d="M428.3,51.3c-6.6,14.8-26.2,20.5-43.7,12.7c-17.5-7.9-26.4-26.3-19.8-41.1s26.2-20.5,43.7-12.7
		C426,18.1,434.9,36.5,428.3,51.3z"/>
</g>
</svg>
